<svg xmlns="http://www.w3.org/2000/svg" xmlns:xlink="http://www.w3.org/1999/xlink" width="128" zoomAndPan="magnify" viewBox="0 0 96 95.999999" height="128" preserveAspectRatio="xMidYMid meet" version="1.0"><defs><clipPath id="0c8b4e43f2"><path d="M 24 1.472656 L 62 1.472656 L 62 39 L 24 39 Z M 24 1.472656 " clip-rule="nonzero"/></clipPath><clipPath id="4b43adf137"><path d="M 11.625 43 L 61 43 L 61 80 L 11.625 80 Z M 11.625 43 " clip-rule="nonzero"/></clipPath><clipPath id="0a8b7fc9e0"><path d="M 50 54 L 91.125 54 L 91.125 95.972656 L 50 95.972656 Z M 50 54 " clip-rule="nonzero"/></clipPath></defs><g clip-path="url(#0c8b4e43f2)"><path fill="#ffffff" d="M 42.929688 38.132812 C 52.945312 38.132812 61.085938 29.992188 61.085938 19.992188 C 61.101562 9.972656 52.945312 1.832031 42.929688 1.832031 C 32.929688 1.832031 24.789062 9.972656 24.789062 19.972656 C 24.789062 29.992188 32.945312 38.132812 42.929688 38.132812 Z M 42.929688 38.132812 " fill-opacity="1" fill-rule="nonzero"/></g><g clip-path="url(#4b43adf137)"><path fill="#ffffff" d="M 43.078125 75.28125 C 43.078125 74.195312 43.128906 73.136719 43.28125 72.082031 C 44.085938 64.730469 47.804688 58.148438 53.546875 53.625 C 55.121094 52.402344 56.832031 51.3125 58.691406 50.410156 C 59.359375 50.089844 60.0625 49.773438 60.765625 49.519531 C 55.574219 45.917969 49.328125 43.941406 42.945312 43.941406 C 25.675781 43.941406 11.625 57.996094 11.625 75.265625 L 11.625 75.683594 C 11.625 77.660156 13.25 79.285156 15.222656 79.285156 L 43.382812 79.285156 C 43.214844 78.164062 43.113281 77.023438 43.097656 75.867188 C 43.097656 75.699219 43.078125 75.484375 43.078125 75.28125 Z M 43.078125 75.28125 " fill-opacity="1" fill-rule="nonzero"/></g><g clip-path="url(#0a8b7fc9e0)"><path fill="#ffffff" d="M 70.632812 54.914062 C 67.566406 54.914062 64.601562 55.585938 61.871094 56.890625 C 61.855469 56.890625 61.839844 56.90625 61.824219 56.90625 C 61.804688 56.925781 61.773438 56.925781 61.753906 56.941406 C 54.703125 60.375 50.316406 67.359375 50.300781 75.230469 C 50.300781 75.25 50.300781 75.25 50.300781 75.265625 L 50.300781 75.316406 C 50.316406 75.332031 50.316406 75.347656 50.300781 75.367188 C 50.316406 75.449219 50.316406 75.535156 50.316406 75.617188 L 50.316406 75.683594 C 50.535156 86.707031 59.628906 95.632812 70.632812 95.632812 C 81.871094 95.632812 91.019531 86.503906 91.019531 75.28125 C 91.019531 64.042969 81.871094 54.914062 70.632812 54.914062 Z M 79.445312 74.226562 L 69.679688 83.976562 C 69.175781 84.476562 68.488281 84.78125 67.769531 84.78125 L 63.917969 84.863281 L 63.867188 84.863281 C 63.128906 84.863281 62.410156 84.578125 61.890625 84.058594 C 61.355469 83.523438 61.050781 82.785156 61.085938 82.015625 L 61.167969 78.164062 C 61.1875 77.441406 61.472656 76.757812 61.972656 76.253906 L 71.738281 66.503906 C 72.828125 65.398438 74.585938 65.398438 75.691406 66.503906 L 79.460938 70.273438 C 80.53125 71.347656 80.53125 73.121094 79.445312 74.226562 Z M 79.445312 74.226562 " fill-opacity="1" fill-rule="nonzero"/></g></svg>