<svg xmlns="http://www.w3.org/2000/svg" xmlns:xlink="http://www.w3.org/1999/xlink" width="128" zoomAndPan="magnify" viewBox="0 0 96 95.999999" height="128" preserveAspectRatio="xMidYMid meet" version="1.0"><defs><clipPath id="3fd26a6175"><path d="M 1.910156 13.355469 L 94.160156 13.355469 L 94.160156 89 L 1.910156 89 Z M 1.910156 13.355469 " clip-rule="nonzero"/></clipPath></defs><g clip-path="url(#3fd26a6175)"><path fill="#ffffff" d="M 18.453125 80.132812 C 16.839844 80.132812 15.527344 78.824219 15.527344 77.207031 C 15.527344 75.59375 16.839844 74.285156 18.453125 74.285156 C 20.066406 74.285156 21.375 75.59375 21.375 77.207031 C 21.375 78.824219 20.066406 80.132812 18.453125 80.132812 Z M 31.191406 72.6875 C 31.191406 71.070312 29.882812 69.761719 28.269531 69.761719 C 26.652344 69.761719 25.34375 71.070312 25.34375 72.6875 C 25.34375 74.300781 26.652344 75.609375 28.269531 75.609375 C 29.882812 75.609375 31.191406 74.300781 31.191406 72.6875 Z M 45 70.773438 C 45 69.160156 43.691406 67.851562 42.074219 67.851562 C 40.460938 67.851562 39.152344 69.160156 39.152344 70.773438 C 39.152344 72.390625 40.460938 73.699219 42.074219 73.699219 C 43.691406 73.699219 45 72.390625 45 70.773438 Z M 74.714844 84.578125 C 73.1875 83.492188 71.445312 82.75 69.6875 82.101562 C 62.777344 79.566406 55.351562 78.453125 48 78.824219 C 40.648438 78.453125 33.222656 79.566406 26.308594 82.101562 C 24.550781 82.75 22.808594 83.492188 21.28125 84.578125 C 19.753906 85.660156 18.441406 87.113281 17.800781 88.941406 C 27.710938 86.753906 37.847656 85.582031 48 85.449219 C 58.148438 85.582031 68.285156 86.753906 78.195312 88.941406 C 77.554688 87.113281 76.242188 85.660156 74.714844 84.578125 Z M 77.542969 74.285156 C 75.929688 74.285156 74.621094 75.59375 74.621094 77.207031 C 74.621094 78.824219 75.929688 80.132812 77.542969 80.132812 C 79.160156 80.132812 80.46875 78.824219 80.46875 77.207031 C 80.46875 75.59375 79.160156 74.285156 77.542969 74.285156 Z M 68.65625 72.6875 C 68.65625 71.070312 67.347656 69.761719 65.734375 69.761719 C 64.117188 69.761719 62.808594 71.070312 62.808594 72.6875 C 62.808594 74.300781 64.117188 75.609375 65.734375 75.609375 C 67.347656 75.609375 68.65625 74.300781 68.65625 72.6875 Z M 56.84375 70.773438 C 56.84375 69.160156 55.535156 67.851562 53.921875 67.851562 C 52.304688 67.851562 50.996094 69.160156 50.996094 70.773438 C 50.996094 72.390625 52.304688 73.699219 53.921875 73.699219 C 55.535156 73.699219 56.84375 72.390625 56.84375 70.773438 Z M 94.074219 31.1875 C 94.074219 33.316406 92.457031 35.066406 90.382812 35.273438 C 89.003906 40.3125 80.648438 70.855469 80.613281 70.773438 C 73.148438 65.335938 60.363281 62.53125 48 62.757812 C 35.632812 62.53125 22.847656 65.335938 15.382812 70.773438 C 15.351562 70.855469 6.996094 40.3125 5.617188 35.273438 C 3.542969 35.066406 1.921875 33.316406 1.921875 31.1875 C 1.921875 28.917969 3.761719 27.078125 6.03125 27.078125 C 8.296875 27.078125 10.136719 28.917969 10.136719 31.1875 C 10.136719 32.582031 9.441406 33.8125 8.378906 34.554688 C 11.183594 41.015625 16.164062 46.542969 22.496094 50.273438 C 24.703125 44.484375 25.460938 38.144531 24.738281 31.820312 C 24.554688 31.84375 24.371094 31.855469 24.1875 31.855469 C 21.550781 31.855469 19.414062 29.714844 19.414062 27.078125 C 19.414062 24.441406 21.550781 22.304688 24.1875 22.304688 C 26.824219 22.304688 28.960938 24.441406 28.960938 27.078125 C 28.960938 28.625 28.226562 29.996094 27.089844 30.871094 C 29.699219 37.300781 33.644531 43.164062 38.699219 47.785156 C 43.320312 40.925781 45.980469 32.761719 46.289062 24.640625 C 43.871094 23.960938 42.09375 21.742188 42.09375 19.105469 C 42.09375 15.929688 44.667969 13.355469 47.84375 13.355469 C 47.894531 13.355469 47.945312 13.355469 48 13.355469 C 48.050781 13.355469 48.101562 13.355469 48.152344 13.355469 C 51.328125 13.355469 53.902344 15.929688 53.902344 19.105469 C 53.902344 21.742188 52.128906 23.960938 49.707031 24.640625 C 50.015625 32.761719 52.675781 40.925781 57.300781 47.785156 C 62.351562 43.164062 66.300781 37.300781 68.910156 30.871094 C 67.769531 29.996094 67.039062 28.625 67.039062 27.078125 C 67.039062 24.441406 69.175781 22.304688 71.8125 22.304688 C 74.449219 22.304688 76.585938 24.441406 76.585938 27.078125 C 76.585938 29.714844 74.449219 31.855469 71.8125 31.855469 C 71.625 31.855469 71.441406 31.84375 71.261719 31.820312 C 70.535156 38.144531 71.292969 44.484375 73.503906 50.273438 C 79.835938 46.542969 84.8125 41.015625 87.617188 34.554688 C 86.554688 33.8125 85.859375 32.582031 85.859375 31.1875 C 85.859375 28.917969 87.699219 27.078125 89.96875 27.078125 C 92.234375 27.078125 94.074219 28.917969 94.074219 31.1875 Z M 33.101562 54.421875 L 28.589844 43.238281 L 28.269531 55.800781 L 31.582031 58.378906 Z M 50.5 53.375 L 48 41.40625 L 45.496094 53.375 L 48 56.171875 Z M 67.726562 55.800781 L 67.40625 43.238281 L 62.898438 54.421875 L 64.414062 58.378906 Z M 67.726562 55.800781 " fill-opacity="1" fill-rule="nonzero"/></g></svg>