<svg xmlns="http://www.w3.org/2000/svg" xmlns:xlink="http://www.w3.org/1999/xlink" width="128" zoomAndPan="magnify" viewBox="0 0 96 95.999999" height="128" preserveAspectRatio="xMidYMid meet" version="1.0"><defs><clipPath id="a475e56620"><path d="M 11.863281 42 L 80 42 L 80 96 L 11.863281 96 Z M 11.863281 42 " clip-rule="nonzero"/></clipPath><clipPath id="bd8514a15b"><path d="M 60 62 L 83.863281 62 L 83.863281 77 L 60 77 Z M 60 62 " clip-rule="nonzero"/></clipPath></defs><g clip-path="url(#a475e56620)"><path fill="#ffffff" d="M 56.800781 77.304688 L 56.800781 61.503906 C 56.800781 59.976562 58.050781 58.726562 59.578125 58.726562 L 79.976562 58.726562 L 79.976562 42.828125 L 11.863281 42.828125 L 11.863281 95.980469 L 79.976562 95.980469 L 79.976562 80.078125 L 59.578125 80.078125 C 58.050781 80.078125 56.800781 78.832031 56.800781 77.304688 Z M 56.800781 77.304688 " fill-opacity="1" fill-rule="nonzero"/></g><path fill="#ffffff" d="M 62.8125 14.988281 C 62.140625 15.25 61.417969 15.367188 60.679688 15.300781 C 59.839844 15.234375 59.019531 14.953125 58.296875 14.511719 L 30.128906 39.558594 L 63.570312 39.558594 L 72.539062 31.59375 C 71.878906 30.050781 71.960938 28.273438 72.75 26.863281 L 62.832031 15.003906 Z M 62.8125 14.988281 " fill-opacity="1" fill-rule="nonzero"/><path fill="#ffffff" d="M 71.601562 69.402344 C 71.601562 69.785156 71.527344 70.152344 71.378906 70.503906 C 71.234375 70.855469 71.023438 71.167969 70.75 71.4375 C 70.476562 71.707031 70.164062 71.914062 69.804688 72.058594 C 69.449219 72.203125 69.078125 72.277344 68.695312 72.277344 C 68.308594 72.277344 67.9375 72.203125 67.582031 72.058594 C 67.226562 71.914062 66.910156 71.707031 66.636719 71.4375 C 66.367188 71.167969 66.15625 70.855469 66.007812 70.503906 C 65.859375 70.152344 65.785156 69.785156 65.785156 69.402344 C 65.785156 69.023438 65.859375 68.65625 66.007812 68.304688 C 66.15625 67.949219 66.367188 67.640625 66.636719 67.371094 C 66.910156 67.101562 67.226562 66.894531 67.582031 66.746094 C 67.9375 66.601562 68.308594 66.527344 68.695312 66.527344 C 69.078125 66.527344 69.449219 66.601562 69.804688 66.746094 C 70.164062 66.894531 70.476562 67.101562 70.75 67.371094 C 71.023438 67.640625 71.234375 67.949219 71.378906 68.304688 C 71.527344 68.65625 71.601562 69.023438 71.601562 69.402344 Z M 71.601562 69.402344 " fill-opacity="1" fill-rule="nonzero"/><path fill="#ffffff" d="M 57.179688 11.09375 C 57.507812 10.800781 57.953125 10.652344 58.394531 10.683594 C 58.839844 10.71875 59.25 10.929688 59.527344 11.277344 C 59.890625 11.71875 60.398438 11.980469 60.925781 12.03125 C 61.238281 12.046875 61.695312 12.015625 62.089844 11.652344 C 62.417969 11.359375 62.847656 11.210938 63.308594 11.242188 C 63.75 11.277344 64.160156 11.488281 64.441406 11.832031 L 76.101562 25.777344 C 76.675781 26.46875 76.59375 27.46875 75.9375 28.0625 C 75.183594 28.734375 75.148438 30 75.886719 30.886719 C 76.464844 31.558594 76.382812 32.578125 75.722656 33.167969 L 68.511719 39.59375 L 72.308594 39.59375 L 83 30.050781 C 83 30.050781 82.96875 29.800781 82.753906 29.539062 L 61.597656 4.292969 C 61.402344 4.066406 61.238281 4.046875 61.203125 4.03125 L 21.375 39.542969 L 25.183594 39.542969 Z M 57.179688 11.09375 " fill-opacity="1" fill-rule="nonzero"/><g clip-path="url(#bd8514a15b)"><path fill="#ffffff" d="M 60.085938 76.792969 L 84.132812 76.792969 L 84.132812 62.027344 L 60.085938 62.027344 Z M 68.695312 63.242188 C 72.109375 63.242188 74.886719 66.003906 74.886719 69.402344 C 74.886719 72.804688 72.109375 75.5625 68.695312 75.5625 C 65.277344 75.5625 62.5 72.804688 62.5 69.402344 C 62.5 66.003906 65.277344 63.242188 68.695312 63.242188 Z M 68.695312 63.242188 " fill-opacity="1" fill-rule="nonzero"/></g></svg>